<svg data-v-423bf9ae="" xmlns="http://www.w3.org/2000/svg" viewBox="0 0 711 90" class="iconLeft"><!----><!----><!----><g data-v-423bf9ae="" id="ba4d02a4-cba1-4fd1-9db1-c06c89b1edba" fill="black" transform="matrix(6.024096488952637,0,0,6.024096488952637,111.1993408203125,-1.867469072341919)"><path d="M3.79 12.61L3.79 3.67L0.48 3.67L0.48 2.95L8.05 2.95L8.05 3.67L4.73 3.67L4.73 12.61L3.79 12.61ZM9.73 12.61L9.73 2.95L10.57 2.95L10.57 6.98L10.57 6.98Q10.90 6.40 11.53 6.03L11.53 6.03L11.53 6.03Q12.15 5.66 12.85 5.66L12.85 5.66L12.85 5.66Q13.62 5.66 14.12 6.02L14.12 6.02L14.12 6.02Q14.62 6.38 14.86 6.99L14.86 6.99L14.86 6.99Q15.09 7.60 15.09 8.36L15.09 8.36L15.09 12.61L14.23 12.61L14.23 8.52L14.23 8.52Q14.23 7.66 13.89 7.06L13.89 7.06L13.89 7.06Q13.56 6.47 12.72 6.47L12.72 6.47L12.72 6.47Q12.12 6.47 11.63 6.80L11.63 6.80L11.63 6.80Q11.14 7.13 10.85 7.68L10.85 7.68L10.85 7.68Q10.57 8.23 10.57 8.87L10.57 8.87L10.57 12.61L9.73 12.61ZM18.84 12.74L18.84 12.74Q18.21 12.74 17.72 12.50L17.72 12.50L17.72 12.50Q17.23 12.26 16.96 11.82L16.96 11.82L16.96 11.82Q16.69 11.37 16.69 10.76L16.69 10.76L16.69 10.76Q16.69 8.74 19.76 8.74L19.76 8.74L21.28 8.74L21.28 8.74Q21.28 7.62 20.87 7L20.87 7L20.87 7Q20.46 6.38 19.52 6.38L19.52 6.38L19.52 6.38Q18.32 6.38 17.55 7.42L17.55 7.42L16.94 6.94L16.94 6.94Q17.88 5.63 19.44 5.63L19.44 5.63L19.44 5.63Q20.28 5.63 20.87 5.97L20.87 5.97L20.87 5.97Q21.45 6.32 21.75 6.94L21.75 6.94L21.75 6.94Q22.05 7.57 22.05 8.41L22.05 8.41L22.05 12.61L21.31 12.61L21.31 11.20L21.31 11.20Q20.97 11.97 20.30 12.36L20.30 12.36L20.30 12.36Q19.64 12.74 18.84 12.74L18.84 12.74ZM18.93 12.02L18.93 12.02Q19.65 12.02 20.18 11.62L20.18 11.62L20.18 11.62Q20.71 11.23 21.00 10.63L21.00 10.63L21.00 10.63Q21.28 10.02 21.28 9.41L21.28 9.41L19.87 9.41L19.87 9.41Q18.70 9.41 18.14 9.72L18.14 9.72L18.14 9.72Q17.58 10.03 17.58 10.77L17.58 10.77L17.58 10.77Q17.58 11.42 17.95 11.72L17.95 11.72L17.95 11.72Q18.33 12.02 18.93 12.02L18.93 12.02ZM26.02 12.74L26.02 12.74Q25.19 12.74 24.85 12.24L24.85 12.24L24.85 12.24Q24.50 11.74 24.50 10.81L24.50 10.81L24.50 6.47L23.41 6.47L23.41 5.78L24.50 5.78L24.50 4.27L25.35 3.38L25.35 5.78L27.09 5.78L27.09 6.47L25.35 6.47L25.35 10.90L25.35 10.90Q25.35 11.46 25.60 11.76L25.60 11.76L25.60 11.76Q25.85 12.06 26.25 12.06L26.25 12.06L26.25 12.06Q26.53 12.06 26.87 11.91L26.87 11.91L26.87 12.62L26.87 12.62Q26.76 12.67 26.53 12.70L26.53 12.70L26.53 12.70Q26.30 12.74 26.02 12.74L26.02 12.74ZM31.41 12.71L31.41 12.71Q30.62 12.71 29.93 12.43L29.93 12.43L29.93 12.43Q29.24 12.15 28.77 11.58L28.77 11.58L28.77 11.58Q28.29 11.01 28.16 10.20L28.16 10.20L29.00 9.93L29.00 9.93Q29.07 10.57 29.42 11.01L29.42 11.01L29.42 11.01Q29.76 11.46 30.28 11.68L30.28 11.68L30.28 11.68Q30.80 11.89 31.41 11.89L31.41 11.89L31.41 11.89Q32.35 11.89 32.90 11.43L32.90 11.43L32.90 11.43Q33.46 10.97 33.46 10.04L33.46 10.04L33.46 10.04Q33.46 9.45 33.15 9.03L33.15 9.03L33.15 9.03Q32.85 8.62 32.41 8.36L32.41 8.36L32.41 8.36Q31.96 8.09 31.21 7.76L31.21 7.76L31.21 7.76Q30.42 7.40 29.94 7.12L29.94 7.12L29.94 7.12Q29.46 6.83 29.13 6.36L29.13 6.36L29.13 6.36Q28.81 5.89 28.81 5.20L28.81 5.20L28.81 5.20Q28.81 4.50 29.15 3.96L29.15 3.96L29.15 3.96Q29.48 3.41 30.06 3.11L30.06 3.11L30.06 3.11Q30.64 2.80 31.33 2.80L31.33 2.80L31.33 2.80Q32.18 2.80 32.85 3.17L32.85 3.17L32.85 3.17Q33.51 3.53 33.95 4.26L33.95 4.26L33.29 4.72L33.29 4.72Q33.00 4.16 32.48 3.87L32.48 3.87L32.48 3.87Q31.96 3.59 31.33 3.59L31.33 3.59L31.33 3.59Q30.90 3.59 30.52 3.77L30.52 3.77L30.52 3.77Q30.15 3.96 29.92 4.30L29.92 4.30L29.92 4.30Q29.69 4.64 29.69 5.10L29.69 5.10L29.69 5.10Q29.69 5.58 29.96 5.94L29.96 5.94L29.96 5.94Q30.23 6.29 30.63 6.53L30.63 6.53L30.63 6.53Q31.04 6.77 31.74 7.10L31.74 7.10L31.74 7.10Q32.57 7.48 33.09 7.80L33.09 7.80L33.09 7.80Q33.61 8.13 33.97 8.66L33.97 8.66L33.97 8.66Q34.34 9.19 34.34 9.97L34.34 9.97L34.34 9.97Q34.34 10.79 33.96 11.42L33.96 11.42L33.96 11.42Q33.58 12.04 32.92 12.38L32.92 12.38L32.92 12.38Q32.25 12.71 31.41 12.71L31.41 12.71ZM38.88 12.74L38.88 12.74Q37.96 12.74 37.24 12.26L37.24 12.26L37.24 12.26Q36.52 11.78 36.12 10.96L36.12 10.96L36.12 10.96Q35.72 10.14 35.72 9.17L35.72 9.17L35.72 9.17Q35.72 8.20 36.12 7.39L36.12 7.39L36.12 7.39Q36.52 6.58 37.24 6.11L37.24 6.11L37.24 6.11Q37.96 5.63 38.88 5.63L38.88 5.63L38.88 5.63Q39.79 5.63 40.52 6.11L40.52 6.11L40.52 6.11Q41.25 6.58 41.66 7.40L41.66 7.40L41.66 7.40Q42.07 8.21 42.07 9.17L42.07 9.17L42.07 9.17Q42.07 10.14 41.66 10.96L41.66 10.96L41.66 10.96Q41.25 11.78 40.52 12.26L40.52 12.26L40.52 12.26Q39.79 12.74 38.88 12.74L38.88 12.74ZM38.89 12.04L38.89 12.04Q39.65 12.04 40.17 11.64L40.17 11.64L40.17 11.64Q40.70 11.23 40.96 10.58L40.96 10.58L40.96 10.58Q41.21 9.92 41.21 9.17L41.21 9.17L41.21 9.17Q41.21 8.43 40.96 7.78L40.96 7.78L40.96 7.78Q40.70 7.13 40.18 6.73L40.18 6.73L40.18 6.73Q39.66 6.33 38.90 6.33L38.90 6.33L38.90 6.33Q38.15 6.33 37.63 6.73L37.63 6.73L37.63 6.73Q37.10 7.13 36.84 7.78L36.84 7.78L36.84 7.78Q36.58 8.43 36.58 9.17L36.58 9.17L36.58 9.17Q36.58 9.93 36.84 10.58L36.84 10.58L36.84 10.58Q37.10 11.24 37.62 11.64L37.62 11.64L37.62 11.64Q38.14 12.04 38.89 12.04L38.89 12.04ZM46.04 12.76L46.04 12.76Q44.86 12.76 44.30 11.95L44.30 11.95L44.30 11.95Q43.74 11.14 43.74 9.83L43.74 9.83L43.74 5.78L44.58 5.78L44.58 9.91L44.58 9.91Q44.58 10.79 44.92 11.42L44.92 11.42L44.92 11.42Q45.25 12.06 46.07 12.06L46.07 12.06L46.07 12.06Q46.65 12.06 47.14 11.73L47.14 11.73L47.14 11.73Q47.64 11.40 47.93 10.86L47.93 10.86L47.93 10.86Q48.23 10.32 48.23 9.73L48.23 9.73L48.23 5.78L49.07 5.78L49.07 12.61L48.23 12.61L48.23 11.36L48.23 11.36Q48.10 11.68 47.80 12.00L47.80 12.00L47.80 12.00Q47.49 12.33 47.03 12.54L47.03 12.54L47.03 12.54Q46.58 12.76 46.04 12.76L46.04 12.76ZM51.45 12.61L51.45 5.78L52.30 5.78L52.30 7.06L52.30 7.06Q52.64 6.41 53.21 6.04L53.21 6.04L53.21 6.04Q53.78 5.66 54.56 5.66L54.56 5.66L54.56 5.66Q55.32 5.66 55.82 6.03L55.82 6.03L55.82 6.03Q56.32 6.40 56.56 7.03L56.56 7.03L56.56 7.03Q56.79 7.66 56.79 8.45L56.79 8.45L56.79 12.61L55.94 12.61L55.94 8.52L55.94 8.52Q55.94 7.64 55.57 7.00L55.57 7.00L55.57 7.00Q55.20 6.36 54.33 6.36L54.33 6.36L54.33 6.36Q53.76 6.36 53.30 6.68L53.30 6.68L53.30 6.68Q52.84 6.99 52.57 7.61L52.57 7.61L52.57 7.61Q52.30 8.22 52.30 9.11L52.30 9.11L52.30 12.61L51.45 12.61ZM63.42 2.95L64.27 2.95L64.27 12.61L63.42 12.61L63.42 11.61L63.42 11.61Q63.04 12.14 62.52 12.44L62.52 12.44L62.52 12.44Q62.01 12.74 61.24 12.74L61.24 12.74L61.24 12.74Q60.41 12.74 59.80 12.27L59.80 12.27L59.80 12.27Q59.19 11.80 58.86 10.99L58.86 10.99L58.86 10.99Q58.54 10.18 58.54 9.19L58.54 9.19L58.54 9.19Q58.54 8.20 58.86 7.39L58.86 7.39L58.86 7.39Q59.19 6.58 59.80 6.10L59.80 6.10L59.80 6.10Q60.41 5.63 61.24 5.63L61.24 5.63L61.24 5.63Q62.67 5.63 63.42 6.77L63.42 6.77L63.42 2.95ZM61.46 12.04L61.46 12.04Q62.15 12.04 62.60 11.65L62.60 11.65L62.60 11.65Q63.06 11.25 63.27 10.61L63.27 10.61L63.27 10.61Q63.49 9.96 63.49 9.19L63.49 9.19L63.49 9.19Q63.49 8.42 63.27 7.78L63.27 7.78L63.27 7.78Q63.06 7.13 62.60 6.73L62.60 6.73L62.60 6.73Q62.15 6.33 61.46 6.33L61.46 6.33L61.46 6.33Q60.78 6.33 60.32 6.73L60.32 6.73L60.32 6.73Q59.86 7.13 59.64 7.78L59.64 7.78L59.64 7.78Q59.42 8.43 59.42 9.19L59.42 9.19L59.42 9.19Q59.42 9.95 59.64 10.60L59.64 10.60L59.64 10.60Q59.86 11.25 60.32 11.65L60.32 11.65L60.32 11.65Q60.78 12.04 61.46 12.04L61.46 12.04ZM69.69 12.74L69.69 12.74Q68.26 12.74 67.52 11.61L67.52 11.61L67.52 12.61L66.68 12.61L66.68 2.95L67.52 2.95L67.52 6.77L67.52 6.77Q68.28 5.63 69.69 5.63L69.69 5.63L69.69 5.63Q70.53 5.63 71.15 6.10L71.15 6.10L71.15 6.10Q71.76 6.58 72.07 7.39L72.07 7.39L72.07 7.39Q72.39 8.20 72.39 9.19L72.39 9.19L72.39 9.19Q72.39 10.19 72.07 10.99L72.07 10.99L72.07 10.99Q71.76 11.80 71.15 12.27L71.15 12.27L71.15 12.27Q70.53 12.74 69.69 12.74L69.69 12.74ZM69.47 12.04L69.47 12.04Q70.15 12.04 70.62 11.65L70.62 11.65L70.62 11.65Q71.08 11.25 71.31 10.60L71.31 10.60L71.31 10.60Q71.54 9.95 71.54 9.19L71.54 9.19L71.54 9.19Q71.54 8.44 71.31 7.78L71.31 7.78L71.31 7.78Q71.08 7.13 70.62 6.73L70.62 6.73L70.62 6.73Q70.15 6.33 69.47 6.33L69.47 6.33L69.47 6.33Q68.78 6.33 68.33 6.73L68.33 6.73L68.33 6.73Q67.88 7.13 67.67 7.78L67.67 7.78L67.67 7.78Q67.45 8.43 67.45 9.19L67.45 9.19L67.45 9.19Q67.45 9.95 67.67 10.60L67.67 10.60L67.67 10.60Q67.88 11.25 68.33 11.65L68.33 11.65L68.33 11.65Q68.78 12.04 69.47 12.04L69.47 12.04ZM76.90 12.74L76.90 12.74Q75.98 12.74 75.26 12.26L75.26 12.26L75.26 12.26Q74.55 11.78 74.15 10.96L74.15 10.96L74.15 10.96Q73.75 10.14 73.75 9.17L73.75 9.17L73.75 9.17Q73.75 8.20 74.15 7.39L74.15 7.39L74.15 7.39Q74.55 6.58 75.26 6.11L75.26 6.11L75.26 6.11Q75.98 5.63 76.90 5.63L76.90 5.63L76.90 5.63Q77.81 5.63 78.54 6.11L78.54 6.11L78.54 6.11Q79.27 6.58 79.68 7.40L79.68 7.40L79.68 7.40Q80.09 8.21 80.09 9.17L80.09 9.17L80.09 9.17Q80.09 10.14 79.68 10.96L79.68 10.96L79.68 10.96Q79.27 11.78 78.54 12.26L78.54 12.26L78.54 12.26Q77.81 12.74 76.90 12.74L76.90 12.74ZM76.91 12.04L76.91 12.04Q77.67 12.04 78.20 11.64L78.20 11.64L78.20 11.64Q78.72 11.23 78.98 10.58L78.98 10.58L78.98 10.58Q79.24 9.92 79.24 9.17L79.24 9.17L79.24 9.17Q79.24 8.43 78.98 7.78L78.98 7.78L78.98 7.78Q78.72 7.13 78.20 6.73L78.20 6.73L78.20 6.73Q77.68 6.33 76.92 6.33L76.92 6.33L76.92 6.33Q76.17 6.33 75.65 6.73L75.65 6.73L75.65 6.73Q75.12 7.13 74.86 7.78L74.86 7.78L74.86 7.78Q74.60 8.43 74.60 9.17L74.60 9.17L74.60 9.17Q74.60 9.93 74.86 10.58L74.86 10.58L74.86 10.58Q75.12 11.24 75.64 11.64L75.64 11.64L75.64 11.64Q76.17 12.04 76.91 12.04L76.91 12.04ZM83.45 12.74L83.45 12.74Q82.82 12.74 82.33 12.50L82.33 12.50L82.33 12.50Q81.84 12.26 81.57 11.82L81.57 11.82L81.57 11.82Q81.29 11.37 81.29 10.76L81.29 10.76L81.29 10.76Q81.29 8.74 84.37 8.74L84.37 8.74L85.89 8.74L85.89 8.74Q85.89 7.62 85.48 7L85.48 7L85.48 7Q85.07 6.38 84.12 6.38L84.12 6.38L84.12 6.38Q82.93 6.38 82.16 7.42L82.16 7.42L81.55 6.94L81.55 6.94Q82.48 5.63 84.05 5.63L84.05 5.63L84.05 5.63Q84.89 5.63 85.47 5.97L85.47 5.97L85.47 5.97Q86.06 6.32 86.35 6.94L86.35 6.94L86.35 6.94Q86.65 7.57 86.65 8.41L86.65 8.41L86.65 12.61L85.91 12.61L85.91 11.20L85.91 11.20Q85.57 11.97 84.91 12.36L84.91 12.36L84.91 12.36Q84.25 12.74 83.45 12.74L83.45 12.74ZM83.54 12.02L83.54 12.02Q84.25 12.02 84.79 11.62L84.79 11.62L84.79 11.62Q85.32 11.23 85.60 10.63L85.60 10.63L85.60 10.63Q85.89 10.02 85.89 9.41L85.89 9.41L84.47 9.41L84.47 9.41Q83.30 9.41 82.75 9.72L82.75 9.72L82.75 9.72Q82.19 10.03 82.19 10.77L82.19 10.77L82.19 10.77Q82.19 11.42 82.56 11.72L82.56 11.72L82.56 11.72Q82.93 12.02 83.54 12.02L83.54 12.02ZM88.87 12.61L88.87 5.78L89.74 5.78L89.74 7.01L89.74 7.01Q90.01 6.38 90.57 6.01L90.57 6.01L90.57 6.01Q91.13 5.63 91.79 5.63L91.79 5.63L91.79 5.63Q92.39 5.63 92.86 5.95L92.86 5.95L92.51 6.71L92.51 6.71Q92.21 6.45 91.66 6.45L91.66 6.45L91.66 6.45Q90.72 6.45 90.22 7.14L90.22 7.14L90.22 7.14Q89.72 7.83 89.72 9.06L89.72 9.06L89.72 12.61L88.87 12.61ZM98.67 2.95L99.52 2.95L99.52 12.61L98.67 12.61L98.67 11.61L98.67 11.61Q98.29 12.14 97.78 12.44L97.78 12.44L97.78 12.44Q97.26 12.74 96.49 12.74L96.49 12.74L96.49 12.74Q95.66 12.74 95.05 12.27L95.05 12.27L95.05 12.27Q94.44 11.80 94.12 10.99L94.12 10.99L94.12 10.99Q93.80 10.18 93.80 9.19L93.80 9.19L93.80 9.19Q93.80 8.20 94.12 7.39L94.12 7.39L94.12 7.39Q94.44 6.58 95.05 6.10L95.05 6.10L95.05 6.10Q95.66 5.63 96.49 5.63L96.49 5.63L96.49 5.63Q97.92 5.63 98.67 6.77L98.67 6.77L98.67 2.95ZM96.71 12.04L96.71 12.04Q97.40 12.04 97.86 11.65L97.86 11.65L97.86 11.65Q98.31 11.25 98.53 10.61L98.53 10.61L98.53 10.61Q98.74 9.96 98.74 9.19L98.74 9.19L98.74 9.19Q98.74 8.42 98.53 7.78L98.53 7.78L98.53 7.78Q98.31 7.13 97.86 6.73L97.86 6.73L97.86 6.73Q97.40 6.33 96.71 6.33L96.71 6.33L96.71 6.33Q96.03 6.33 95.57 6.73L95.57 6.73L95.57 6.73Q95.12 7.13 94.90 7.78L94.90 7.78L94.90 7.78Q94.68 8.43 94.68 9.19L94.68 9.19L94.68 9.19Q94.68 9.95 94.90 10.60L94.90 10.60L94.90 10.60Q95.12 11.25 95.57 11.65L95.57 11.65L95.57 11.65Q96.03 12.04 96.71 12.04L96.71 12.04Z"></path></g><!----><g data-v-423bf9ae="" id="d20d6dde-866e-46ba-afec-67c7f0d4b5c9" transform="matrix(1.0227272510528564,0,0,1.0227272510528564,0.9545464515686035,-5.113635063171387)" stroke="none" fill="black"><path d="M0 20h4v59H0zM8 33h4v33H8zM16 27h4v45h-4zM24 16h4v67h-4zM32 43h4v13h-4zM40 37h4v25h-4zM48 30h4v39h-4zM56 33h4v33h-4zM64 47h4v5h-4zM72 5h4v88h-4zM80 23h4v53h-4zM88 37h4v25h-4z"></path></g><!----></svg>