<svg xmlns="http://www.w3.org/2000/svg" width="500" height="500" style=""><rect id="backgroundrect" width="100%" height="100%" x="0" y="0" fill="none" stroke="none"/>
 <g style="" class="currentLayer">
  <g stroke="null" fill="black" id="svg_1" class="">
   <path stroke="null" d="m100.28930998078192,155.61720792933124 l13.01832,0 l0,192.02022 l-13.01832,0 l0,-192.02022 zm26.03664,42.30954 l13.01832,0 l0,107.40114 l-13.01832,0 l0,-107.40114 zm26.03664,-19.527479999999997 l13.01832,0 l0,146.4561 l-13.01832,0 l0,-146.4561 zm26.03664,-35.80038 l13.01832,0 l0,218.05686 l-13.01832,0 l0,-218.05686 zm26.03664,87.87366 l13.01832,0 l0,42.30954 l-13.01832,0 l0,-42.30954 zm26.03664,-19.527479999999997 l13.01832,0 l0,81.36449999999999 l-13.01832,0 l0,-81.36449999999999 zm26.03664,-22.782059999999998 l13.01832,0 l0,126.92862 l-13.01832,0 l0,-126.92862 zm26.03664,9.763739999999999 l13.01832,0 l0,107.40114 l-13.01832,0 l0,-107.40114 zm26.03664,45.564119999999996 l13.01832,0 l0,16.2729 l-13.01832,0 l0,-16.2729 zm26.03664,-136.69235999999998 l13.01832,0 l0,286.40304 l-13.01832,0 l0,-286.40304 zm26.03664,58.58244 l13.01832,0 l0,172.49274 l-13.01832,0 l0,-172.49274 zm26.03664,45.564119999999996 l13.01832,0 l0,81.36449999999999 l-13.01832,0 l0,-81.36449999999999 z" stroke-width="0" id="svg_2"/>
  </g>
 </g>
</svg>