<?xml version="1.0" standalone="no"?>
<!DOCTYPE svg PUBLIC "-//W3C//DTD SVG 20010904//EN"
 "http://www.w3.org/TR/2001/REC-SVG-20010904/DTD/svg10.dtd">
<svg version="1.0" xmlns="http://www.w3.org/2000/svg"
 width="1024.000000pt" height="1024.000000pt" viewBox="0 0 1024.000000 1024.000000"
 preserveAspectRatio="xMidYMid meet">
<metadata>
Created by potrace 1.14, written by Peter Selinger 2001-2017
</metadata>
<g transform="translate(0.000000,1024.000000) scale(0.100000,-0.100000)"
fill="#000000" stroke="none">
<path d="M6879 8052 l-27 -3 0 -2930 0 -2929 27 -1 c41 0 194 0 219 0 l22 1
-2 2931 -3 2931 -105 2 c-58 0 -117 0 -131 -2z"/>
<path d="M3658 7318 c-1 -2 -2 -1007 -3 -2234 l-1 -2230 133 0 133 0 0 2233 0
2233 -130 0 c-71 0 -131 -1 -132 -2z"/>
<path d="M2079 7052 l-25 -3 0 -1964 0 -1965 133 0 133 0 -2 1967 -3 1966
-105 1 c-58 1 -117 0 -131 -2z"/>
<path d="M7407 6851 c-6 -2 -14 -7 -17 -12 -3 -4 -5 -796 -5 -1761 l1 -1753
132 -3 132 -3 1 33 c4 211 0 3490 -4 3495 -7 6 -220 10 -240 4z"/>
<path d="M3125 6582 c-3 -3 -5 -677 -5 -1499 0 -1415 1 -1493 18 -1494 20 -1
222 -1 238 0 9 1 12 381 10 1499 l-1 1497 -128 1 c-70 0 -129 -2 -132 -4z"/>
<path d="M5253 5088 c0 -923 4 -1298 11 -1299 6 0 65 -1 131 -1 l120 -1 3
1299 2 1300 -133 0 -134 0 0 -1298z"/>
<path d="M2589 6166 c-3 -128 -3 -2176 1 -2177 47 -6 261 -2 263 6 2 9 1 2171
-2 2186 -1 4 -59 6 -131 6 -125 0 -130 -1 -131 -21z"/>
<path d="M5789 6166 c-4 -82 -3 -2176 1 -2177 3 0 62 -1 133 -2 l127 -2 1 25
c4 104 3 2164 -1 2170 -3 4 -62 7 -132 7 -123 0 -128 -1 -129 -21z"/>
<path d="M4722 5088 l3 -833 131 -1 131 -1 -1 831 -1 831 -133 3 -132 3 2
-833z"/>
<path d="M7918 5383 c-2 -296 -1 -671 2 -833 l5 -295 130 0 130 0 1 833 0 832
-133 0 -133 0 -2 -537z"/>
<path d="M4189 5503 c-3 -14 -3 -798 0 -839 1 -8 43 -11 133 -10 l132 1 0 430
0 430 -131 3 c-118 2 -131 1 -134 -15z"/>
<path d="M6330 5252 c-6 -2 -10 -67 -10 -168 l0 -164 133 0 134 0 -1 167 -1
167 -122 0 c-68 1 -127 0 -133 -2z"/>
</g>
</svg>
